<?xml version="1.0" encoding="UTF-8" standalone="no"?>
<!DOCTYPE svg PUBLIC "-//W3C//DTD SVG 1.1//EN"
 "http://www.w3.org/Graphics/SVG/1.1/DTD/svg11.dtd">
<!-- Generated by graphviz version 2.47.0 (20210316.0004)
 -->
<!-- Title: dependencies Pages: 1 -->
<svg width="538pt" height="211pt"
 viewBox="0.00 0.00 538.00 211.00" xmlns="http://www.w3.org/2000/svg" xmlns:xlink="http://www.w3.org/1999/xlink">
<g id="graph0" class="graph" transform="scale(1 1) rotate(0) translate(4 207)">
<title>dependencies</title>
<polygon fill="white" stroke="transparent" points="-4,4 -4,-207 534,-207 534,4 -4,4"/>
<text text-anchor="start" x="244.01" y="-42.4" font-family="Times-12" font-weight="bold" font-size="14.00">Legend</text>
<polygon fill="#ffffb3" stroke="transparent" points="31,-10 31,-30 51,-30 51,-10 31,-10"/>
<text text-anchor="start" x="54.63" y="-15.4" font-family="Times-12" font-size="14.00"> &#160;Declarations</text>
<polygon fill="#8dd3c7" stroke="transparent" points="144,-10 144,-30 164,-30 164,-10 144,-10"/>
<text text-anchor="start" x="167.73" y="-15.4" font-family="Times-12" font-size="14.00"> &#160;Module</text>
<polygon fill="#80b1d3" stroke="transparent" points="230,-10 230,-30 250,-30 250,-10 230,-10"/>
<text text-anchor="start" x="253.78" y="-15.4" font-family="Times-12" font-size="14.00"> &#160;Bootstrap</text>
<polygon fill="#fdb462" stroke="transparent" points="327,-10 327,-30 347,-30 347,-10 327,-10"/>
<text text-anchor="start" x="350.67" y="-15.4" font-family="Times-12" font-size="14.00"> &#160;Providers</text>
<polygon fill="#fb8072" stroke="transparent" points="423,-10 423,-30 443,-30 443,-10 423,-10"/>
<text text-anchor="start" x="446.73" y="-15.4" font-family="Times-12" font-size="14.00"> &#160;Exports</text>
<g id="clust1" class="cluster">
<title>cluster_AuthModule</title>
<polygon fill="none" stroke="black" stroke-dasharray="1,5" points="8,-70 8,-195 522,-195 522,-70 8,-70"/>
</g>
<g id="clust3" class="cluster">
<title>cluster_AuthModule_imports</title>
<polygon fill="none" stroke="black" points="16,-78 16,-130 514,-130 514,-78 16,-78"/>
</g>
<!-- ForgotPasswordPage -->
<g id="node1" class="node">
<title>ForgotPasswordPage</title>
<polygon fill="#8dd3c7" stroke="black" points="506.2,-122 503.2,-126 482.2,-126 479.2,-122 371.8,-122 371.8,-86 506.2,-86 506.2,-122"/>
<text text-anchor="middle" x="439" y="-99.8" font-family="Times,serif" font-size="14.00">ForgotPasswordPage</text>
</g>
<!-- AuthModule -->
<g id="node5" class="node">
<title>AuthModule</title>
<polygon fill="#8dd3c7" stroke="black" points="308.55,-187 305.55,-191 284.55,-191 281.55,-187 221.45,-187 221.45,-151 308.55,-151 308.55,-187"/>
<text text-anchor="middle" x="265" y="-164.8" font-family="Times,serif" font-size="14.00">AuthModule</text>
</g>
<!-- ForgotPasswordPage&#45;&gt;AuthModule -->
<g id="edge1" class="edge">
<title>ForgotPasswordPage&#45;&gt;AuthModule</title>
<path fill="none" stroke="black" d="M439,-122.11C439,-141.34 439,-169 439,-169 439,-169 318.91,-169 318.91,-169"/>
<polygon fill="black" stroke="black" points="318.91,-165.5 308.91,-169 318.91,-172.5 318.91,-165.5"/>
</g>
<!-- LoginPage -->
<g id="node2" class="node">
<title>LoginPage</title>
<polygon fill="#8dd3c7" stroke="black" points="354.16,-122 351.16,-126 330.16,-126 327.16,-122 277.84,-122 277.84,-86 354.16,-86 354.16,-122"/>
<text text-anchor="middle" x="316" y="-99.8" font-family="Times,serif" font-size="14.00">LoginPage</text>
</g>
<!-- LoginPage&#45;&gt;AuthModule -->
<g id="edge2" class="edge">
<title>LoginPage&#45;&gt;AuthModule</title>
<path fill="none" stroke="black" d="M293.22,-122.11C293.22,-122.11 293.22,-140.99 293.22,-140.99"/>
<polygon fill="black" stroke="black" points="289.72,-140.99 293.22,-150.99 296.72,-140.99 289.72,-140.99"/>
</g>
<!-- RegisterPage -->
<g id="node3" class="node">
<title>RegisterPage</title>
<polygon fill="#8dd3c7" stroke="black" points="259.86,-122 256.86,-126 235.86,-126 232.86,-122 170.14,-122 170.14,-86 259.86,-86 259.86,-122"/>
<text text-anchor="middle" x="215" y="-99.8" font-family="Times,serif" font-size="14.00">RegisterPage</text>
</g>
<!-- RegisterPage&#45;&gt;AuthModule -->
<g id="edge3" class="edge">
<title>RegisterPage&#45;&gt;AuthModule</title>
<path fill="none" stroke="black" d="M240.58,-122.11C240.58,-122.11 240.58,-140.99 240.58,-140.99"/>
<polygon fill="black" stroke="black" points="237.08,-140.99 240.58,-150.99 244.08,-140.99 237.08,-140.99"/>
</g>
<!-- ResetPasswordPage -->
<g id="node4" class="node">
<title>ResetPasswordPage</title>
<polygon fill="#8dd3c7" stroke="black" points="151.97,-122 148.97,-126 127.97,-126 124.97,-122 24.03,-122 24.03,-86 151.97,-86 151.97,-122"/>
<text text-anchor="middle" x="88" y="-99.8" font-family="Times,serif" font-size="14.00">ResetPasswordPage</text>
</g>
<!-- ResetPasswordPage&#45;&gt;AuthModule -->
<g id="edge4" class="edge">
<title>ResetPasswordPage&#45;&gt;AuthModule</title>
<path fill="none" stroke="black" d="M88,-122.11C88,-141.34 88,-169 88,-169 88,-169 211.25,-169 211.25,-169"/>
<polygon fill="black" stroke="black" points="211.25,-172.5 221.25,-169 211.25,-165.5 211.25,-172.5"/>
</g>
</g>
</svg>
